<svg width="84" height="37" viewBox="0 0 84 37" fill="none" xmlns="http://www.w3.org/2000/svg">
<rect width="37" height="37" fill="#8CFF32"/>
<rect x="44" y="22" width="37" height="2" fill="#8CFF32"/>
<path d="M17.028 26.242C20.812 26.242 23.364 24.108 23.386 20.94C23.408 18.916 22.418 17.552 20.328 16.848L18.678 16.276C17.38 15.836 16.984 15.418 16.984 14.648C16.984 13.768 17.71 13.174 18.7 13.174C20.218 13.174 20.482 14.89 20.482 14.89L24.178 13.658C24.178 13.658 23.452 9.808 18.964 9.808C15.51 9.808 12.98 12.008 12.98 15.044C12.98 17.046 14.014 18.41 16.17 19.114L17.71 19.62C18.876 20.016 19.272 20.412 19.272 21.336C19.272 22.216 18.414 22.854 17.38 22.854C15.466 22.854 15.356 20.83 15.356 20.83L11.506 21.842C11.506 21.842 12.232 26.242 17.028 26.242Z" fill="#353535"/>
<path d="M47.264 23.144C49.436 23.144 50.828 21.956 50.852 20.144C50.864 19.04 50.324 18.272 49.184 17.864L48.356 17.564C47.768 17.348 47.552 17.144 47.552 16.844C47.552 16.556 47.768 16.376 48.104 16.376C48.692 16.376 48.848 17.204 48.848 17.204L51.272 16.388C51.272 16.388 50.828 14.156 48.296 14.156C46.328 14.156 44.912 15.392 44.912 17.108C44.912 18.212 45.488 18.98 46.688 19.388L47.42 19.64C47.936 19.82 48.128 20.012 48.128 20.384C48.128 20.708 47.876 20.912 47.504 20.912C46.688 20.912 46.676 19.964 46.676 19.964L44.144 20.636C44.144 20.636 44.576 23.144 47.264 23.144ZM59.9858 14.3H52.0298L51.5738 16.772H54.2138L53.0738 23H55.7378L56.8778 16.772H59.5298L59.9858 14.3ZM63.6597 23H66.4677L64.8237 14.3H61.6797L56.8557 23H59.8677L60.5277 21.692H63.4797L63.6597 23ZM61.6797 19.388L62.6877 17.372L62.8917 16.856L62.9037 17.36L63.1797 19.388H61.6797ZM75.155 17.216C75.155 15.368 73.847 14.3 71.555 14.3H68.531L66.935 23H69.599L70.043 20.612H70.751L71.375 23H74.279L73.211 20.18C74.387 19.604 75.155 18.512 75.155 17.216ZM70.739 16.76H71.663C72.203 16.76 72.467 16.964 72.467 17.36C72.467 17.852 72.131 18.128 71.531 18.128H70.487L70.739 16.76ZM83.9858 14.3H76.0298L75.5738 16.772H78.2138L77.0738 23H79.7378L80.8778 16.772H83.5298L83.9858 14.3Z" fill="black"/>
</svg>
